<svg xmlns="http://www.w3.org/2000/svg" xmlns:xlink="http://www.w3.org/1999/xlink" width="200" zoomAndPan="magnify" viewBox="0 0 150 44.999999" height="60" preserveAspectRatio="xMidYMid meet" version="1.0"><defs><g/><clipPath id="705c0a7201"><path d="M 0.199219 0.5 L 67.933594 0.5 L 67.933594 15.464844 L 0.199219 15.464844 Z M 0.199219 0.5 " clip-rule="nonzero"/></clipPath><clipPath id="d8642001fa"><path d="M 0.28125 2 L 5 2 L 5 8 L 0.28125 8 Z M 0.28125 2 " clip-rule="nonzero"/></clipPath><clipPath id="ab82cdf79d"><rect x="0" width="51" y="0" height="10"/></clipPath><clipPath id="854b3434e9"><path d="M 8 3 L 15.679688 3 L 15.679688 10 L 8 10 Z M 8 3 " clip-rule="nonzero"/></clipPath><clipPath id="73b79d014a"><rect x="0" width="16" y="0" height="13"/></clipPath><clipPath id="ca2fd224ea"><path d="M 56 17 L 68.640625 17 L 68.640625 32 L 56 32 Z M 56 17 " clip-rule="nonzero"/></clipPath><clipPath id="e414d43ad2"><rect x="0" width="69" y="0" height="38"/></clipPath></defs><g transform="matrix(1, 0, 0, 1, 42, 4)"><g clip-path="url(#e414d43ad2)"><g clip-path="url(#705c0a7201)"><path fill="#ffffff" d="M 64.492188 13.398438 C 63.453125 12.769531 62.40625 12.144531 61.355469 11.53125 C 60.59375 11.085938 59.835938 10.648438 59.070312 10.210938 L 59.070312 0.5 L 52.433594 0.5 L 52.433594 6.492188 C 51.164062 5.792969 49.886719 5.105469 48.609375 4.421875 C 46.464844 3.273438 44.3125 2.144531 42.152344 1.03125 L 41.675781 0.785156 L 41.203125 1.03125 C 39.042969 2.144531 36.890625 3.277344 34.746094 4.421875 C 34.464844 4.574219 34.183594 4.722656 33.902344 4.875 C 33.621094 4.722656 33.335938 4.570312 33.054688 4.421875 C 30.910156 3.273438 28.757812 2.144531 26.597656 1.03125 L 26.121094 0.785156 L 25.648438 1.03125 C 23.488281 2.144531 21.335938 3.277344 19.191406 4.421875 C 17.046875 5.570312 14.914062 6.734375 12.789062 7.917969 C 11.726562 8.507812 10.664062 9.105469 9.609375 9.707031 C 8.550781 10.308594 7.5 10.917969 6.449219 11.535156 C 5.398438 12.148438 4.351562 12.769531 3.308594 13.398438 C 2.265625 14.03125 1.226562 14.667969 0.199219 15.328125 C 1.332031 14.875 2.453125 14.394531 3.570312 13.914062 C 4.691406 13.429688 5.804688 12.9375 6.914062 12.433594 C 8.023438 11.9375 9.128906 11.429688 10.230469 10.917969 C 11.335938 10.40625 12.4375 9.886719 13.535156 9.363281 C 15.730469 8.316406 17.914062 7.25 20.09375 6.167969 C 22.109375 5.164062 24.121094 4.148438 26.121094 3.117188 C 28.015625 4.09375 29.914062 5.054688 31.816406 6.003906 C 30.65625 6.636719 29.496094 7.273438 28.34375 7.917969 C 27.28125 8.507812 26.21875 9.105469 25.164062 9.707031 C 24.105469 10.308594 23.050781 10.917969 22.003906 11.535156 C 20.953125 12.148438 19.90625 12.769531 18.863281 13.398438 C 17.820312 14.03125 16.78125 14.667969 15.753906 15.328125 C 16.886719 14.875 18.007812 14.394531 19.125 13.914062 C 20.242188 13.429688 21.355469 12.9375 22.46875 12.433594 C 23.578125 11.9375 24.683594 11.429688 25.785156 10.917969 C 26.890625 10.40625 27.992188 9.886719 29.089844 9.363281 C 30.695312 8.597656 32.300781 7.820312 33.898438 7.035156 C 34.480469 6.746094 35.0625 6.457031 35.648438 6.167969 C 35.757812 6.113281 35.871094 6.058594 35.984375 6 C 37.886719 5.050781 39.785156 4.089844 41.675781 3.117188 C 43.679688 4.148438 45.691406 5.167969 47.707031 6.171875 C 49.277344 6.953125 50.855469 7.726562 52.4375 8.488281 C 52.953125 8.738281 53.472656 8.988281 53.992188 9.234375 L 53.992188 2.054688 L 57.515625 2.054688 L 57.515625 10.894531 C 57.535156 10.902344 57.550781 10.910156 57.566406 10.917969 C 58.066406 11.152344 58.570312 11.382812 59.074219 11.613281 C 59.675781 11.890625 60.28125 12.164062 60.886719 12.4375 C 61.996094 12.9375 63.109375 13.429688 64.226562 13.914062 C 65.347656 14.398438 66.46875 14.875 67.601562 15.328125 C 66.574219 14.667969 65.535156 14.03125 64.492188 13.398438 Z M 64.492188 13.398438 " fill-opacity="1" fill-rule="nonzero"/></g><g transform="matrix(1, 0, 0, 1, 5, 23)"><g clip-path="url(#ab82cdf79d)"><g clip-path="url(#d8642001fa)"><g fill="#ffffff" fill-opacity="1"><g transform="translate(0.306112, 7.173571)"><g><path d="M 3.8125 -3.109375 C 3.6875 -3.367188 3.507812 -3.566406 3.28125 -3.703125 C 3.050781 -3.847656 2.78125 -3.921875 2.46875 -3.921875 C 2.164062 -3.921875 1.890625 -3.847656 1.640625 -3.703125 C 1.398438 -3.566406 1.207031 -3.367188 1.0625 -3.109375 C 0.925781 -2.847656 0.859375 -2.546875 0.859375 -2.203125 C 0.859375 -1.859375 0.925781 -1.554688 1.0625 -1.296875 C 1.207031 -1.035156 1.398438 -0.832031 1.640625 -0.6875 C 1.890625 -0.550781 2.164062 -0.484375 2.46875 -0.484375 C 2.894531 -0.484375 3.25 -0.609375 3.53125 -0.859375 C 3.8125 -1.117188 3.972656 -1.46875 4.015625 -1.90625 L 2.265625 -1.90625 L 2.265625 -2.375 L 4.625 -2.375 L 4.625 -1.921875 C 4.59375 -1.566406 4.476562 -1.238281 4.28125 -0.9375 C 4.09375 -0.632812 3.835938 -0.394531 3.515625 -0.21875 C 3.203125 -0.0507812 2.851562 0.03125 2.46875 0.03125 C 2.0625 0.03125 1.691406 -0.0625 1.359375 -0.25 C 1.023438 -0.4375 0.757812 -0.703125 0.5625 -1.046875 C 0.363281 -1.390625 0.265625 -1.773438 0.265625 -2.203125 C 0.265625 -2.628906 0.363281 -3.007812 0.5625 -3.34375 C 0.757812 -3.6875 1.023438 -3.953125 1.359375 -4.140625 C 1.691406 -4.335938 2.0625 -4.4375 2.46875 -4.4375 C 2.9375 -4.4375 3.347656 -4.320312 3.703125 -4.09375 C 4.066406 -3.863281 4.332031 -3.535156 4.5 -3.109375 Z M 3.8125 -3.109375 "/></g></g></g></g><g fill="#ffffff" fill-opacity="1"><g transform="translate(5.200012, 7.173571)"><g><path d="M 3.546875 -3.453125 L 3.546875 0 L 2.96875 0 L 2.96875 -0.515625 C 2.863281 -0.335938 2.710938 -0.195312 2.515625 -0.09375 C 2.316406 0 2.101562 0.046875 1.875 0.046875 C 1.601562 0.046875 1.359375 -0.00390625 1.140625 -0.109375 C 0.929688 -0.222656 0.765625 -0.390625 0.640625 -0.609375 C 0.515625 -0.835938 0.453125 -1.109375 0.453125 -1.421875 L 0.453125 -3.453125 L 1.015625 -3.453125 L 1.015625 -1.5 C 1.015625 -1.164062 1.097656 -0.90625 1.265625 -0.71875 C 1.441406 -0.539062 1.679688 -0.453125 1.984375 -0.453125 C 2.285156 -0.453125 2.523438 -0.546875 2.703125 -0.734375 C 2.878906 -0.921875 2.96875 -1.195312 2.96875 -1.5625 L 2.96875 -3.453125 Z M 3.546875 -3.453125 "/></g></g></g><g fill="#ffffff" fill-opacity="1"><g transform="translate(9.225844, 7.173571)"><g><path d="M 1.1875 -2.984375 L 1.1875 -0.9375 C 1.1875 -0.769531 1.21875 -0.648438 1.28125 -0.578125 C 1.351562 -0.515625 1.476562 -0.484375 1.65625 -0.484375 L 2.078125 -0.484375 L 2.078125 0 L 1.5625 0 C 1.25 0 1.007812 -0.0703125 0.84375 -0.21875 C 0.6875 -0.363281 0.609375 -0.601562 0.609375 -0.9375 L 0.609375 -2.984375 L 0.15625 -2.984375 L 0.15625 -3.453125 L 0.609375 -3.453125 L 0.609375 -4.3125 L 1.1875 -4.3125 L 1.1875 -3.453125 L 2.078125 -3.453125 L 2.078125 -2.984375 Z M 1.1875 -2.984375 "/></g></g></g><g fill="#ffffff" fill-opacity="1"><g transform="translate(11.515535, 7.173571)"><g><path d="M 1.1875 -2.984375 L 1.1875 -0.9375 C 1.1875 -0.769531 1.21875 -0.648438 1.28125 -0.578125 C 1.351562 -0.515625 1.476562 -0.484375 1.65625 -0.484375 L 2.078125 -0.484375 L 2.078125 0 L 1.5625 0 C 1.25 0 1.007812 -0.0703125 0.84375 -0.21875 C 0.6875 -0.363281 0.609375 -0.601562 0.609375 -0.9375 L 0.609375 -2.984375 L 0.15625 -2.984375 L 0.15625 -3.453125 L 0.609375 -3.453125 L 0.609375 -4.3125 L 1.1875 -4.3125 L 1.1875 -3.453125 L 2.078125 -3.453125 L 2.078125 -2.984375 Z M 1.1875 -2.984375 "/></g></g></g><g fill="#ffffff" fill-opacity="1"><g transform="translate(13.805227, 7.173571)"><g><path d="M 3.640625 -1.859375 C 3.640625 -1.742188 3.628906 -1.628906 3.609375 -1.515625 L 0.859375 -1.515625 C 0.878906 -1.171875 0.992188 -0.898438 1.203125 -0.703125 C 1.421875 -0.515625 1.679688 -0.421875 1.984375 -0.421875 C 2.222656 -0.421875 2.425781 -0.476562 2.59375 -0.59375 C 2.757812 -0.71875 2.878906 -0.875 2.953125 -1.0625 L 3.5625 -1.0625 C 3.46875 -0.726562 3.28125 -0.457031 3 -0.25 C 2.726562 -0.0390625 2.390625 0.0625 1.984375 0.0625 C 1.648438 0.0625 1.351562 -0.0078125 1.09375 -0.15625 C 0.84375 -0.3125 0.640625 -0.523438 0.484375 -0.796875 C 0.335938 -1.066406 0.265625 -1.378906 0.265625 -1.734375 C 0.265625 -2.085938 0.335938 -2.398438 0.484375 -2.671875 C 0.628906 -2.941406 0.828125 -3.144531 1.078125 -3.28125 C 1.335938 -3.425781 1.640625 -3.5 1.984375 -3.5 C 2.304688 -3.5 2.59375 -3.425781 2.84375 -3.28125 C 3.09375 -3.144531 3.285156 -2.953125 3.421875 -2.703125 C 3.566406 -2.453125 3.640625 -2.171875 3.640625 -1.859375 Z M 3.046875 -1.984375 C 3.046875 -2.191406 2.992188 -2.375 2.890625 -2.53125 C 2.796875 -2.695312 2.664062 -2.816406 2.5 -2.890625 C 2.332031 -2.972656 2.148438 -3.015625 1.953125 -3.015625 C 1.660156 -3.015625 1.410156 -2.921875 1.203125 -2.734375 C 1.003906 -2.554688 0.890625 -2.304688 0.859375 -1.984375 Z M 3.046875 -1.984375 "/></g></g></g><g fill="#ffffff" fill-opacity="1"><g transform="translate(17.705251, 7.173571)"><g><path d="M 1.0625 -2.890625 C 1.15625 -3.085938 1.296875 -3.238281 1.484375 -3.34375 C 1.671875 -3.457031 1.898438 -3.515625 2.171875 -3.515625 L 2.171875 -2.921875 L 2.015625 -2.921875 C 1.378906 -2.921875 1.0625 -2.570312 1.0625 -1.875 L 1.0625 0 L 0.484375 0 L 0.484375 -3.453125 L 1.0625 -3.453125 Z M 1.0625 -2.890625 "/></g></g></g><g fill="#ffffff" fill-opacity="1"><g transform="translate(20.051555, 7.173571)"><g/></g></g><g fill="#ffffff" fill-opacity="1"><g transform="translate(21.731082, 7.173571)"><g><path d="M 0.265625 -2.203125 C 0.265625 -2.628906 0.359375 -3.007812 0.546875 -3.34375 C 0.742188 -3.6875 1.007812 -3.957031 1.34375 -4.15625 C 1.675781 -4.351562 2.050781 -4.453125 2.46875 -4.453125 C 2.945312 -4.453125 3.363281 -4.332031 3.71875 -4.09375 C 4.070312 -3.863281 4.332031 -3.535156 4.5 -3.109375 L 3.8125 -3.109375 C 3.6875 -3.378906 3.507812 -3.582031 3.28125 -3.71875 C 3.050781 -3.863281 2.78125 -3.9375 2.46875 -3.9375 C 2.15625 -3.9375 1.875 -3.863281 1.625 -3.71875 C 1.382812 -3.582031 1.195312 -3.378906 1.0625 -3.109375 C 0.925781 -2.847656 0.859375 -2.546875 0.859375 -2.203125 C 0.859375 -1.847656 0.925781 -1.539062 1.0625 -1.28125 C 1.195312 -1.019531 1.382812 -0.816406 1.625 -0.671875 C 1.875 -0.523438 2.15625 -0.453125 2.46875 -0.453125 C 2.78125 -0.453125 3.050781 -0.519531 3.28125 -0.65625 C 3.507812 -0.800781 3.6875 -1.007812 3.8125 -1.28125 L 4.5 -1.28125 C 4.332031 -0.863281 4.070312 -0.539062 3.71875 -0.3125 C 3.363281 -0.0820312 2.945312 0.03125 2.46875 0.03125 C 2.050781 0.03125 1.675781 -0.0625 1.34375 -0.25 C 1.007812 -0.4375 0.742188 -0.703125 0.546875 -1.046875 C 0.359375 -1.390625 0.265625 -1.773438 0.265625 -2.203125 Z M 0.265625 -2.203125 "/></g></g></g><g fill="#ffffff" fill-opacity="1"><g transform="translate(26.587241, 7.173571)"><g><path d="M 1.0625 -4.65625 L 1.0625 0 L 0.484375 0 L 0.484375 -4.65625 Z M 1.0625 -4.65625 "/></g></g></g><g fill="#ffffff" fill-opacity="1"><g transform="translate(28.134671, 7.173571)"><g><path d="M 3.640625 -1.859375 C 3.640625 -1.742188 3.628906 -1.628906 3.609375 -1.515625 L 0.859375 -1.515625 C 0.878906 -1.171875 0.992188 -0.898438 1.203125 -0.703125 C 1.421875 -0.515625 1.679688 -0.421875 1.984375 -0.421875 C 2.222656 -0.421875 2.425781 -0.476562 2.59375 -0.59375 C 2.757812 -0.71875 2.878906 -0.875 2.953125 -1.0625 L 3.5625 -1.0625 C 3.46875 -0.726562 3.28125 -0.457031 3 -0.25 C 2.726562 -0.0390625 2.390625 0.0625 1.984375 0.0625 C 1.648438 0.0625 1.351562 -0.0078125 1.09375 -0.15625 C 0.84375 -0.3125 0.640625 -0.523438 0.484375 -0.796875 C 0.335938 -1.066406 0.265625 -1.378906 0.265625 -1.734375 C 0.265625 -2.085938 0.335938 -2.398438 0.484375 -2.671875 C 0.628906 -2.941406 0.828125 -3.144531 1.078125 -3.28125 C 1.335938 -3.425781 1.640625 -3.5 1.984375 -3.5 C 2.304688 -3.5 2.59375 -3.425781 2.84375 -3.28125 C 3.09375 -3.144531 3.285156 -2.953125 3.421875 -2.703125 C 3.566406 -2.453125 3.640625 -2.171875 3.640625 -1.859375 Z M 3.046875 -1.984375 C 3.046875 -2.191406 2.992188 -2.375 2.890625 -2.53125 C 2.796875 -2.695312 2.664062 -2.816406 2.5 -2.890625 C 2.332031 -2.972656 2.148438 -3.015625 1.953125 -3.015625 C 1.660156 -3.015625 1.410156 -2.921875 1.203125 -2.734375 C 1.003906 -2.554688 0.890625 -2.304688 0.859375 -1.984375 Z M 3.046875 -1.984375 "/></g></g></g><g fill="#ffffff" fill-opacity="1"><g transform="translate(32.034695, 7.173571)"><g><path d="M 0.265625 -1.734375 C 0.265625 -2.085938 0.335938 -2.394531 0.484375 -2.65625 C 0.628906 -2.925781 0.828125 -3.132812 1.078125 -3.28125 C 1.328125 -3.425781 1.601562 -3.5 1.90625 -3.5 C 2.207031 -3.5 2.46875 -3.429688 2.6875 -3.296875 C 2.914062 -3.171875 3.082031 -3.015625 3.1875 -2.828125 L 3.1875 -3.453125 L 3.765625 -3.453125 L 3.765625 0 L 3.1875 0 L 3.1875 -0.640625 C 3.070312 -0.441406 2.898438 -0.273438 2.671875 -0.140625 C 2.453125 -0.00390625 2.195312 0.0625 1.90625 0.0625 C 1.59375 0.0625 1.3125 -0.0078125 1.0625 -0.15625 C 0.820312 -0.3125 0.628906 -0.523438 0.484375 -0.796875 C 0.335938 -1.078125 0.265625 -1.390625 0.265625 -1.734375 Z M 3.1875 -1.734375 C 3.1875 -1.992188 3.132812 -2.21875 3.03125 -2.40625 C 2.925781 -2.601562 2.785156 -2.753906 2.609375 -2.859375 C 2.429688 -2.960938 2.234375 -3.015625 2.015625 -3.015625 C 1.804688 -3.015625 1.613281 -2.960938 1.4375 -2.859375 C 1.257812 -2.753906 1.117188 -2.601562 1.015625 -2.40625 C 0.910156 -2.21875 0.859375 -1.992188 0.859375 -1.734375 C 0.859375 -1.472656 0.910156 -1.242188 1.015625 -1.046875 C 1.117188 -0.847656 1.257812 -0.695312 1.4375 -0.59375 C 1.613281 -0.5 1.804688 -0.453125 2.015625 -0.453125 C 2.234375 -0.453125 2.429688 -0.5 2.609375 -0.59375 C 2.785156 -0.695312 2.925781 -0.847656 3.03125 -1.046875 C 3.132812 -1.242188 3.1875 -1.472656 3.1875 -1.734375 Z M 3.1875 -1.734375 "/></g></g></g><g fill="#ffffff" fill-opacity="1"><g transform="translate(36.286979, 7.173571)"><g><path d="M 2.171875 -3.515625 C 2.585938 -3.515625 2.925781 -3.382812 3.1875 -3.125 C 3.445312 -2.875 3.578125 -2.507812 3.578125 -2.03125 L 3.578125 0 L 3.015625 0 L 3.015625 -1.953125 C 3.015625 -2.296875 2.925781 -2.554688 2.75 -2.734375 C 2.582031 -2.921875 2.347656 -3.015625 2.046875 -3.015625 C 1.742188 -3.015625 1.503906 -2.921875 1.328125 -2.734375 C 1.148438 -2.546875 1.0625 -2.269531 1.0625 -1.90625 L 1.0625 0 L 0.484375 0 L 0.484375 -3.453125 L 1.0625 -3.453125 L 1.0625 -2.953125 C 1.175781 -3.128906 1.328125 -3.265625 1.515625 -3.359375 C 1.710938 -3.460938 1.929688 -3.515625 2.171875 -3.515625 Z M 2.171875 -3.515625 "/></g></g></g><g fill="#ffffff" fill-opacity="1"><g transform="translate(40.312811, 7.173571)"><g><path d="M 0.78125 -4.015625 C 0.664062 -4.015625 0.570312 -4.050781 0.5 -4.125 C 0.425781 -4.195312 0.390625 -4.289062 0.390625 -4.40625 C 0.390625 -4.507812 0.425781 -4.597656 0.5 -4.671875 C 0.570312 -4.753906 0.664062 -4.796875 0.78125 -4.796875 C 0.882812 -4.796875 0.972656 -4.753906 1.046875 -4.671875 C 1.117188 -4.597656 1.15625 -4.507812 1.15625 -4.40625 C 1.15625 -4.289062 1.117188 -4.195312 1.046875 -4.125 C 0.972656 -4.050781 0.882812 -4.015625 0.78125 -4.015625 Z M 1.0625 -3.453125 L 1.0625 0 L 0.484375 0 L 0.484375 -3.453125 Z M 1.0625 -3.453125 "/></g></g></g><g fill="#ffffff" fill-opacity="1"><g transform="translate(41.860241, 7.173571)"><g><path d="M 2.171875 -3.515625 C 2.585938 -3.515625 2.925781 -3.382812 3.1875 -3.125 C 3.445312 -2.875 3.578125 -2.507812 3.578125 -2.03125 L 3.578125 0 L 3.015625 0 L 3.015625 -1.953125 C 3.015625 -2.296875 2.925781 -2.554688 2.75 -2.734375 C 2.582031 -2.921875 2.347656 -3.015625 2.046875 -3.015625 C 1.742188 -3.015625 1.503906 -2.921875 1.328125 -2.734375 C 1.148438 -2.546875 1.0625 -2.269531 1.0625 -1.90625 L 1.0625 0 L 0.484375 0 L 0.484375 -3.453125 L 1.0625 -3.453125 L 1.0625 -2.953125 C 1.175781 -3.128906 1.328125 -3.265625 1.515625 -3.359375 C 1.710938 -3.460938 1.929688 -3.515625 2.171875 -3.515625 Z M 2.171875 -3.515625 "/></g></g></g><g fill="#ffffff" fill-opacity="1"><g transform="translate(45.886072, 7.173571)"><g><path d="M 1.90625 -3.5 C 2.207031 -3.5 2.46875 -3.429688 2.6875 -3.296875 C 2.914062 -3.171875 3.082031 -3.015625 3.1875 -2.828125 L 3.1875 -3.453125 L 3.765625 -3.453125 L 3.765625 0.078125 C 3.765625 0.390625 3.695312 0.664062 3.5625 0.90625 C 3.4375 1.15625 3.25 1.347656 3 1.484375 C 2.75 1.628906 2.457031 1.703125 2.125 1.703125 C 1.664062 1.703125 1.285156 1.59375 0.984375 1.375 C 0.679688 1.164062 0.503906 0.875 0.453125 0.5 L 1.015625 0.5 C 1.078125 0.707031 1.207031 0.875 1.40625 1 C 1.601562 1.132812 1.84375 1.203125 2.125 1.203125 C 2.4375 1.203125 2.691406 1.101562 2.890625 0.90625 C 3.085938 0.707031 3.1875 0.429688 3.1875 0.078125 L 3.1875 -0.65625 C 3.070312 -0.445312 2.90625 -0.273438 2.6875 -0.140625 C 2.46875 -0.00390625 2.207031 0.0625 1.90625 0.0625 C 1.601562 0.0625 1.328125 -0.0078125 1.078125 -0.15625 C 0.828125 -0.3125 0.628906 -0.523438 0.484375 -0.796875 C 0.335938 -1.078125 0.265625 -1.390625 0.265625 -1.734375 C 0.265625 -2.085938 0.335938 -2.394531 0.484375 -2.65625 C 0.628906 -2.925781 0.828125 -3.132812 1.078125 -3.28125 C 1.328125 -3.425781 1.601562 -3.5 1.90625 -3.5 Z M 3.1875 -1.734375 C 3.1875 -1.992188 3.132812 -2.21875 3.03125 -2.40625 C 2.925781 -2.601562 2.785156 -2.753906 2.609375 -2.859375 C 2.429688 -2.960938 2.234375 -3.015625 2.015625 -3.015625 C 1.804688 -3.015625 1.613281 -2.960938 1.4375 -2.859375 C 1.257812 -2.753906 1.117188 -2.601562 1.015625 -2.40625 C 0.910156 -2.21875 0.859375 -1.992188 0.859375 -1.734375 C 0.859375 -1.472656 0.910156 -1.242188 1.015625 -1.046875 C 1.117188 -0.847656 1.257812 -0.695312 1.4375 -0.59375 C 1.613281 -0.5 1.804688 -0.453125 2.015625 -0.453125 C 2.234375 -0.453125 2.429688 -0.5 2.609375 -0.59375 C 2.785156 -0.695312 2.925781 -0.847656 3.03125 -1.046875 C 3.132812 -1.242188 3.1875 -1.472656 3.1875 -1.734375 Z M 3.1875 -1.734375 "/></g></g></g></g></g><g transform="matrix(1, 0, 0, 1, 46, 13)"><g clip-path="url(#73b79d014a)"><g fill="#ffffff" fill-opacity="1"><g transform="translate(1.794592, 9.784497)"><g><path d="M 5.546875 -1.21875 C 5.609375 -1.019531 5.710938 -0.863281 5.859375 -0.75 C 6.003906 -0.644531 6.160156 -0.59375 6.328125 -0.59375 C 6.328125 -0.476562 6.304688 -0.367188 6.265625 -0.265625 C 6.234375 -0.160156 6.1875 -0.0703125 6.125 0 L 3.625 0 C 3.550781 -0.0703125 3.492188 -0.160156 3.453125 -0.265625 C 3.421875 -0.367188 3.40625 -0.476562 3.40625 -0.59375 C 3.757812 -0.59375 3.9375 -0.738281 3.9375 -1.03125 C 3.9375 -1.15625 3.914062 -1.300781 3.875 -1.46875 L 3.8125 -1.65625 L 1.75 -1.65625 L 1.703125 -1.46875 C 1.640625 -1.28125 1.609375 -1.144531 1.609375 -1.0625 C 1.609375 -0.75 1.804688 -0.59375 2.203125 -0.59375 C 2.203125 -0.476562 2.179688 -0.367188 2.140625 -0.265625 C 2.109375 -0.160156 2.054688 -0.0703125 1.984375 0 L -0.0625 0 C -0.132812 -0.0703125 -0.1875 -0.160156 -0.21875 -0.265625 C -0.257812 -0.367188 -0.28125 -0.476562 -0.28125 -0.59375 C -0.101562 -0.59375 0.0507812 -0.640625 0.1875 -0.734375 C 0.332031 -0.835938 0.4375 -0.988281 0.5 -1.1875 L 2.015625 -5.65625 C 1.773438 -5.726562 1.46875 -5.765625 1.09375 -5.765625 C 1.09375 -6.035156 1.164062 -6.257812 1.3125 -6.4375 L 3.828125 -6.4375 Z M 3.609375 -2.375 L 2.953125 -4.671875 C 2.898438 -4.847656 2.832031 -5.003906 2.75 -5.140625 L 1.953125 -2.375 Z M 3.609375 -2.375 "/></g></g></g><g clip-path="url(#854b3434e9)"><g fill="#ffffff" fill-opacity="1"><g transform="translate(7.846956, 9.784497)"><g><path d="M 1.234375 -5.046875 C 1.234375 -5.316406 1.332031 -5.5625 1.53125 -5.78125 C 1.726562 -6 2.007812 -6.175781 2.375 -6.3125 C 2.75 -6.445312 3.179688 -6.515625 3.671875 -6.515625 C 4.140625 -6.515625 4.535156 -6.457031 4.859375 -6.34375 C 5.191406 -6.226562 5.441406 -6.070312 5.609375 -5.875 C 5.773438 -5.6875 5.859375 -5.484375 5.859375 -5.265625 C 5.859375 -5.046875 5.78125 -4.875 5.625 -4.75 C 5.476562 -4.632812 5.289062 -4.578125 5.0625 -4.578125 C 4.851562 -4.578125 4.679688 -4.628906 4.546875 -4.734375 C 4.421875 -4.847656 4.359375 -4.984375 4.359375 -5.140625 C 4.359375 -5.253906 4.394531 -5.351562 4.46875 -5.4375 C 4.539062 -5.53125 4.644531 -5.597656 4.78125 -5.640625 C 4.53125 -5.847656 4.222656 -5.953125 3.859375 -5.953125 C 3.546875 -5.953125 3.289062 -5.875 3.09375 -5.71875 C 2.894531 -5.570312 2.796875 -5.382812 2.796875 -5.15625 C 2.796875 -4.90625 2.867188 -4.671875 3.015625 -4.453125 C 3.160156 -4.234375 3.375 -4.0625 3.65625 -3.9375 L 3.65625 -3.515625 C 3.164062 -3.515625 2.828125 -3.359375 2.640625 -3.046875 C 2.460938 -2.734375 2.375 -2.351562 2.375 -1.90625 C 2.375 -1.53125 2.484375 -1.21875 2.703125 -0.96875 C 2.929688 -0.71875 3.253906 -0.59375 3.671875 -0.59375 C 4.015625 -0.59375 4.300781 -0.675781 4.53125 -0.84375 C 4.769531 -1.007812 4.890625 -1.253906 4.890625 -1.578125 C 4.890625 -1.878906 4.773438 -2.117188 4.546875 -2.296875 C 4.328125 -2.472656 4.035156 -2.5625 3.671875 -2.5625 L 3.671875 -2.640625 C 3.671875 -2.742188 3.6875 -2.851562 3.71875 -2.96875 C 3.757812 -3.082031 3.8125 -3.164062 3.875 -3.21875 C 4.257812 -3.21875 4.570312 -3.265625 4.8125 -3.359375 C 5.0625 -3.460938 5.320312 -3.601562 5.59375 -3.78125 C 5.800781 -3.925781 5.984375 -4.03125 6.140625 -4.09375 C 6.304688 -4.164062 6.503906 -4.203125 6.734375 -4.203125 C 6.960938 -4.203125 7.101562 -4.144531 7.15625 -4.03125 C 7.21875 -3.925781 7.25 -3.804688 7.25 -3.671875 C 7.25 -3.535156 7.234375 -3.441406 7.203125 -3.390625 C 6.878906 -3.410156 6.578125 -3.421875 6.296875 -3.421875 C 6.117188 -3.421875 5.960938 -3.394531 5.828125 -3.34375 C 5.703125 -3.300781 5.578125 -3.21875 5.453125 -3.09375 C 5.660156 -3.039062 5.84375 -2.9375 6 -2.78125 C 6.15625 -2.625 6.273438 -2.441406 6.359375 -2.234375 C 6.453125 -2.023438 6.5 -1.816406 6.5 -1.609375 C 6.5 -1.304688 6.394531 -1.023438 6.1875 -0.765625 C 5.988281 -0.515625 5.6875 -0.3125 5.28125 -0.15625 C 4.875 0 4.375 0.078125 3.78125 0.078125 C 3.15625 0.078125 2.601562 -0.00390625 2.125 -0.171875 C 1.65625 -0.347656 1.289062 -0.582031 1.03125 -0.875 C 0.78125 -1.164062 0.65625 -1.484375 0.65625 -1.828125 C 0.65625 -2.242188 0.773438 -2.609375 1.015625 -2.921875 C 1.253906 -3.242188 1.707031 -3.46875 2.375 -3.59375 C 1.945312 -3.75 1.648438 -3.953125 1.484375 -4.203125 C 1.316406 -4.453125 1.234375 -4.734375 1.234375 -5.046875 Z M 1.234375 -5.046875 "/></g></g></g></g></g></g><g clip-path="url(#ca2fd224ea)"><g fill="#ffffff" fill-opacity="1"><g transform="translate(56.601147, 31.487478)"><g><path d="M 10.140625 -4.734375 C 10.140625 -2.941406 9.679688 -1.660156 8.765625 -0.890625 C 7.847656 -0.117188 6.65625 0.265625 5.1875 0.265625 C 4.8125 0.265625 4.375 0.21875 3.875 0.125 C 3.382812 0.0390625 3.015625 -0.0664062 2.765625 -0.203125 L 1.875 0.265625 C 1.394531 -0.242188 0.992188 -0.859375 0.671875 -1.578125 C 0.359375 -2.296875 0.203125 -3.222656 0.203125 -4.359375 C 0.203125 -4.816406 0.238281 -5.21875 0.3125 -5.5625 L 3.46875 -5.5625 C 3.351562 -5.070312 3.296875 -4.628906 3.296875 -4.234375 C 3.296875 -3.421875 3.445312 -2.769531 3.75 -2.28125 C 4.0625 -1.800781 4.539062 -1.5625 5.1875 -1.5625 C 5.625 -1.5625 6 -1.710938 6.3125 -2.015625 C 6.625 -2.316406 6.78125 -2.820312 6.78125 -3.53125 L 6.78125 -11.703125 C 6.78125 -12.210938 6.640625 -12.582031 6.359375 -12.8125 C 6.085938 -13.039062 5.59375 -13.15625 4.875 -13.15625 C 4.875 -13.394531 4.914062 -13.628906 5 -13.859375 C 5.082031 -14.097656 5.203125 -14.300781 5.359375 -14.46875 L 11.03125 -14.46875 C 11.1875 -14.300781 11.304688 -14.101562 11.390625 -13.875 C 11.472656 -13.644531 11.515625 -13.40625 11.515625 -13.15625 C 11.046875 -13.15625 10.695312 -13.070312 10.46875 -12.90625 C 10.25 -12.738281 10.140625 -12.46875 10.140625 -12.09375 Z M 10.140625 -4.734375 "/></g></g></g></g></g></g></svg>