<svg xmlns="http://www.w3.org/2000/svg" xmlns:xlink="http://www.w3.org/1999/xlink" width="200" zoomAndPan="magnify" viewBox="0 0 150 44.999999" height="60" preserveAspectRatio="xMidYMid meet" version="1.0"><defs><g/><clipPath id="f7f73bd64e"><path d="M 43.617188 4.5 L 108 4.5 L 108 18.75 L 43.617188 18.75 Z M 43.617188 4.5 " clip-rule="nonzero"/></clipPath><clipPath id="61a718a0e6"><path d="M 0.199219 2 L 5 2 L 5 7 L 0.199219 7 Z M 0.199219 2 " clip-rule="nonzero"/></clipPath><clipPath id="3b3cac3cce"><path d="M 43 3 L 47.960938 3 L 47.960938 9 L 43 9 Z M 43 3 " clip-rule="nonzero"/></clipPath><clipPath id="6dd642f877"><rect x="0" width="48" y="0" height="10"/></clipPath><clipPath id="53d7c2d3e4"><path d="M 10 2 L 19.601562 2 L 19.601562 9 L 10 9 Z M 10 2 " clip-rule="nonzero"/></clipPath><clipPath id="7736f6a49f"><rect x="0" width="20" y="0" height="12"/></clipPath><clipPath id="01e34e4019"><path d="M 0.160156 3 L 16 3 L 16 19 L 0.160156 19 Z M 0.160156 3 " clip-rule="nonzero"/></clipPath><clipPath id="3c28419873"><rect x="0" width="17" y="0" height="26"/></clipPath></defs><g clip-path="url(#f7f73bd64e)"><path fill="#ffffff" d="M 104.84375 16.78125 C 103.847656 16.183594 102.851562 15.589844 101.851562 15.003906 C 101.128906 14.582031 100.40625 14.164062 99.679688 13.746094 L 99.679688 4.5 L 93.359375 4.5 L 93.359375 10.207031 C 92.148438 9.542969 90.933594 8.886719 89.714844 8.234375 C 87.675781 7.140625 85.625 6.066406 83.566406 5.003906 L 83.113281 4.773438 L 82.664062 5.003906 C 80.605469 6.066406 78.554688 7.144531 76.515625 8.234375 C 76.246094 8.378906 75.980469 8.523438 75.710938 8.667969 C 75.441406 8.523438 75.171875 8.378906 74.90625 8.234375 C 72.863281 7.140625 70.8125 6.066406 68.753906 5.003906 L 68.300781 4.773438 L 67.851562 5.003906 C 65.792969 6.066406 63.742188 7.144531 61.703125 8.234375 C 59.660156 9.328125 57.628906 10.4375 55.605469 11.5625 C 54.59375 12.125 53.582031 12.695312 52.578125 13.269531 C 51.570312 13.84375 50.566406 14.421875 49.566406 15.007812 C 48.566406 15.59375 47.570312 16.183594 46.578125 16.785156 C 45.585938 17.386719 44.59375 17.992188 43.617188 18.621094 C 44.695312 18.1875 45.761719 17.730469 46.828125 17.273438 C 47.894531 16.8125 48.953125 16.34375 50.011719 15.867188 C 51.066406 15.390625 52.121094 14.90625 53.171875 14.417969 C 54.222656 13.933594 55.269531 13.4375 56.316406 12.941406 C 58.40625 11.945312 60.488281 10.929688 62.558594 9.898438 C 64.480469 8.941406 66.394531 7.972656 68.304688 6.992188 C 70.105469 7.921875 71.910156 8.835938 73.726562 9.742188 C 72.621094 10.34375 71.515625 10.949219 70.417969 11.5625 C 69.40625 12.125 68.394531 12.695312 67.390625 13.269531 C 66.382812 13.84375 65.378906 14.421875 64.378906 15.007812 C 63.378906 15.59375 62.382812 16.183594 61.390625 16.785156 C 60.398438 17.386719 59.40625 17.992188 58.429688 18.621094 C 59.507812 18.1875 60.574219 17.730469 61.640625 17.273438 C 62.703125 16.8125 63.765625 16.34375 64.820312 15.867188 C 65.878906 15.390625 66.933594 14.90625 67.984375 14.417969 C 69.035156 13.933594 70.082031 13.4375 71.128906 12.941406 C 72.660156 12.210938 74.183594 11.472656 75.707031 10.722656 C 76.261719 10.449219 76.816406 10.175781 77.371094 9.898438 C 77.480469 9.84375 77.585938 9.792969 77.691406 9.738281 C 79.507812 8.835938 81.3125 7.921875 83.113281 6.992188 C 85.023438 7.976562 86.9375 8.945312 88.855469 9.902344 C 90.351562 10.644531 91.855469 11.382812 93.359375 12.109375 C 93.851562 12.347656 94.347656 12.582031 94.839844 12.820312 L 94.839844 5.980469 L 98.199219 5.980469 L 98.199219 14.398438 C 98.214844 14.40625 98.230469 14.414062 98.246094 14.421875 C 98.722656 14.644531 99.203125 14.863281 99.679688 15.082031 C 100.253906 15.347656 100.832031 15.609375 101.40625 15.867188 C 102.464844 16.34375 103.523438 16.8125 104.589844 17.273438 C 105.65625 17.734375 106.722656 18.1875 107.800781 18.621094 C 106.824219 17.992188 105.832031 17.386719 104.84375 16.78125 Z M 104.84375 16.78125 " fill-opacity="1" fill-rule="nonzero"/></g><g transform="matrix(1, 0, 0, 1, 43, 26)"><g clip-path="url(#6dd642f877)"><g clip-path="url(#61a718a0e6)"><g fill="#ffffff" fill-opacity="1"><g transform="translate(0.309004, 6.757165)"><g><path d="M 3.625 -2.96875 C 3.507812 -3.207031 3.335938 -3.394531 3.109375 -3.53125 C 2.890625 -3.664062 2.640625 -3.734375 2.359375 -3.734375 C 2.066406 -3.734375 1.800781 -3.664062 1.5625 -3.53125 C 1.332031 -3.394531 1.148438 -3.203125 1.015625 -2.953125 C 0.878906 -2.703125 0.8125 -2.414062 0.8125 -2.09375 C 0.8125 -1.757812 0.878906 -1.46875 1.015625 -1.21875 C 1.148438 -0.976562 1.332031 -0.789062 1.5625 -0.65625 C 1.800781 -0.519531 2.066406 -0.453125 2.359375 -0.453125 C 2.765625 -0.453125 3.097656 -0.570312 3.359375 -0.8125 C 3.617188 -1.0625 3.769531 -1.394531 3.8125 -1.8125 L 2.15625 -1.8125 L 2.15625 -2.25 L 4.40625 -2.25 L 4.40625 -1.828125 C 4.363281 -1.484375 4.25 -1.164062 4.0625 -0.875 C 3.882812 -0.59375 3.644531 -0.367188 3.34375 -0.203125 C 3.050781 -0.046875 2.722656 0.03125 2.359375 0.03125 C 1.960938 0.03125 1.601562 -0.0546875 1.28125 -0.234375 C 0.96875 -0.421875 0.71875 -0.675781 0.53125 -1 C 0.34375 -1.320312 0.25 -1.6875 0.25 -2.09375 C 0.25 -2.5 0.34375 -2.863281 0.53125 -3.1875 C 0.71875 -3.507812 0.96875 -3.757812 1.28125 -3.9375 C 1.601562 -4.125 1.960938 -4.21875 2.359375 -4.21875 C 2.796875 -4.21875 3.1875 -4.109375 3.53125 -3.890625 C 3.875 -3.671875 4.117188 -3.363281 4.265625 -2.96875 Z M 3.625 -2.96875 "/></g></g></g></g><g fill="#ffffff" fill-opacity="1"><g transform="translate(4.969304, 6.757165)"><g><path d="M 3.375 -3.28125 L 3.375 0 L 2.828125 0 L 2.828125 -0.484375 C 2.722656 -0.316406 2.578125 -0.1875 2.390625 -0.09375 C 2.203125 0 2 0.046875 1.78125 0.046875 C 1.519531 0.046875 1.285156 -0.00390625 1.078125 -0.109375 C 0.878906 -0.210938 0.722656 -0.367188 0.609375 -0.578125 C 0.492188 -0.796875 0.4375 -1.054688 0.4375 -1.359375 L 0.4375 -3.28125 L 0.96875 -3.28125 L 0.96875 -1.4375 C 0.96875 -1.113281 1.046875 -0.863281 1.203125 -0.6875 C 1.367188 -0.507812 1.597656 -0.421875 1.890625 -0.421875 C 2.179688 -0.421875 2.410156 -0.507812 2.578125 -0.6875 C 2.742188 -0.875 2.828125 -1.140625 2.828125 -1.484375 L 2.828125 -3.28125 Z M 3.375 -3.28125 "/></g></g></g><g fill="#ffffff" fill-opacity="1"><g transform="translate(8.802972, 6.757165)"><g><path d="M 1.125 -2.828125 L 1.125 -0.890625 C 1.125 -0.734375 1.15625 -0.617188 1.21875 -0.546875 C 1.289062 -0.484375 1.410156 -0.453125 1.578125 -0.453125 L 1.984375 -0.453125 L 1.984375 0 L 1.484375 0 C 1.179688 0 0.953125 -0.0664062 0.796875 -0.203125 C 0.648438 -0.347656 0.578125 -0.578125 0.578125 -0.890625 L 0.578125 -2.828125 L 0.15625 -2.828125 L 0.15625 -3.28125 L 0.578125 -3.28125 L 0.578125 -4.109375 L 1.125 -4.109375 L 1.125 -3.28125 L 1.984375 -3.28125 L 1.984375 -2.828125 Z M 1.125 -2.828125 "/></g></g></g><g fill="#ffffff" fill-opacity="1"><g transform="translate(10.983369, 6.757165)"><g><path d="M 1.125 -2.828125 L 1.125 -0.890625 C 1.125 -0.734375 1.15625 -0.617188 1.21875 -0.546875 C 1.289062 -0.484375 1.410156 -0.453125 1.578125 -0.453125 L 1.984375 -0.453125 L 1.984375 0 L 1.484375 0 C 1.179688 0 0.953125 -0.0664062 0.796875 -0.203125 C 0.648438 -0.347656 0.578125 -0.578125 0.578125 -0.890625 L 0.578125 -2.828125 L 0.15625 -2.828125 L 0.15625 -3.28125 L 0.578125 -3.28125 L 0.578125 -4.109375 L 1.125 -4.109375 L 1.125 -3.28125 L 1.984375 -3.28125 L 1.984375 -2.828125 Z M 1.125 -2.828125 "/></g></g></g><g fill="#ffffff" fill-opacity="1"><g transform="translate(13.163767, 6.757165)"><g><path d="M 3.453125 -1.765625 C 3.453125 -1.660156 3.445312 -1.550781 3.4375 -1.4375 L 0.8125 -1.4375 C 0.832031 -1.113281 0.941406 -0.859375 1.140625 -0.671875 C 1.347656 -0.492188 1.59375 -0.40625 1.875 -0.40625 C 2.113281 -0.40625 2.3125 -0.457031 2.46875 -0.5625 C 2.625 -0.675781 2.734375 -0.828125 2.796875 -1.015625 L 3.390625 -1.015625 C 3.296875 -0.691406 3.117188 -0.429688 2.859375 -0.234375 C 2.597656 -0.046875 2.269531 0.046875 1.875 0.046875 C 1.5625 0.046875 1.28125 -0.0195312 1.03125 -0.15625 C 0.789062 -0.289062 0.597656 -0.488281 0.453125 -0.75 C 0.316406 -1.007812 0.25 -1.304688 0.25 -1.640625 C 0.25 -1.984375 0.316406 -2.28125 0.453125 -2.53125 C 0.597656 -2.789062 0.789062 -2.988281 1.03125 -3.125 C 1.28125 -3.257812 1.5625 -3.328125 1.875 -3.328125 C 2.1875 -3.328125 2.460938 -3.257812 2.703125 -3.125 C 2.941406 -2.988281 3.125 -2.800781 3.25 -2.5625 C 3.382812 -2.332031 3.453125 -2.066406 3.453125 -1.765625 Z M 2.890625 -1.875 C 2.890625 -2.082031 2.84375 -2.257812 2.75 -2.40625 C 2.65625 -2.5625 2.53125 -2.675781 2.375 -2.75 C 2.21875 -2.832031 2.046875 -2.875 1.859375 -2.875 C 1.578125 -2.875 1.335938 -2.785156 1.140625 -2.609375 C 0.953125 -2.429688 0.84375 -2.1875 0.8125 -1.875 Z M 2.890625 -1.875 "/></g></g></g><g fill="#ffffff" fill-opacity="1"><g transform="translate(16.877632, 6.757165)"><g><path d="M 1 -2.75 C 1.101562 -2.9375 1.242188 -3.082031 1.421875 -3.1875 C 1.597656 -3.289062 1.8125 -3.34375 2.0625 -3.34375 L 2.0625 -2.78125 L 1.921875 -2.78125 C 1.304688 -2.78125 1 -2.445312 1 -1.78125 L 1 0 L 0.453125 0 L 0.453125 -3.28125 L 1 -3.28125 Z M 1 -2.75 "/></g></g></g><g fill="#ffffff" fill-opacity="1"><g transform="translate(19.111941, 6.757165)"><g/></g></g><g fill="#ffffff" fill-opacity="1"><g transform="translate(20.711299, 6.757165)"><g><path d="M 0.25 -2.09375 C 0.25 -2.5 0.34375 -2.863281 0.53125 -3.1875 C 0.71875 -3.507812 0.96875 -3.757812 1.28125 -3.9375 C 1.601562 -4.125 1.957031 -4.21875 2.34375 -4.21875 C 2.789062 -4.21875 3.1875 -4.109375 3.53125 -3.890625 C 3.875 -3.671875 4.117188 -3.363281 4.265625 -2.96875 L 3.625 -2.96875 C 3.507812 -3.21875 3.34375 -3.410156 3.125 -3.546875 C 2.90625 -3.679688 2.644531 -3.75 2.34375 -3.75 C 2.050781 -3.75 1.785156 -3.679688 1.546875 -3.546875 C 1.316406 -3.410156 1.132812 -3.21875 1 -2.96875 C 0.875 -2.71875 0.8125 -2.425781 0.8125 -2.09375 C 0.8125 -1.757812 0.875 -1.46875 1 -1.21875 C 1.132812 -0.96875 1.316406 -0.773438 1.546875 -0.640625 C 1.785156 -0.503906 2.050781 -0.4375 2.34375 -0.4375 C 2.644531 -0.4375 2.90625 -0.503906 3.125 -0.640625 C 3.34375 -0.773438 3.507812 -0.96875 3.625 -1.21875 L 4.265625 -1.21875 C 4.117188 -0.8125 3.875 -0.5 3.53125 -0.28125 C 3.1875 -0.0703125 2.789062 0.03125 2.34375 0.03125 C 1.957031 0.03125 1.601562 -0.0546875 1.28125 -0.234375 C 0.96875 -0.421875 0.71875 -0.675781 0.53125 -1 C 0.34375 -1.320312 0.25 -1.6875 0.25 -2.09375 Z M 0.25 -2.09375 "/></g></g></g><g fill="#ffffff" fill-opacity="1"><g transform="translate(25.33566, 6.757165)"><g><path d="M 1 -4.421875 L 1 0 L 0.453125 0 L 0.453125 -4.421875 Z M 1 -4.421875 "/></g></g></g><g fill="#ffffff" fill-opacity="1"><g transform="translate(26.809226, 6.757165)"><g><path d="M 3.453125 -1.765625 C 3.453125 -1.660156 3.445312 -1.550781 3.4375 -1.4375 L 0.8125 -1.4375 C 0.832031 -1.113281 0.941406 -0.859375 1.140625 -0.671875 C 1.347656 -0.492188 1.59375 -0.40625 1.875 -0.40625 C 2.113281 -0.40625 2.3125 -0.457031 2.46875 -0.5625 C 2.625 -0.675781 2.734375 -0.828125 2.796875 -1.015625 L 3.390625 -1.015625 C 3.296875 -0.691406 3.117188 -0.429688 2.859375 -0.234375 C 2.597656 -0.046875 2.269531 0.046875 1.875 0.046875 C 1.5625 0.046875 1.28125 -0.0195312 1.03125 -0.15625 C 0.789062 -0.289062 0.597656 -0.488281 0.453125 -0.75 C 0.316406 -1.007812 0.25 -1.304688 0.25 -1.640625 C 0.25 -1.984375 0.316406 -2.28125 0.453125 -2.53125 C 0.597656 -2.789062 0.789062 -2.988281 1.03125 -3.125 C 1.28125 -3.257812 1.5625 -3.328125 1.875 -3.328125 C 2.1875 -3.328125 2.460938 -3.257812 2.703125 -3.125 C 2.941406 -2.988281 3.125 -2.800781 3.25 -2.5625 C 3.382812 -2.332031 3.453125 -2.066406 3.453125 -1.765625 Z M 2.890625 -1.875 C 2.890625 -2.082031 2.84375 -2.257812 2.75 -2.40625 C 2.65625 -2.5625 2.53125 -2.675781 2.375 -2.75 C 2.21875 -2.832031 2.046875 -2.875 1.859375 -2.875 C 1.578125 -2.875 1.335938 -2.785156 1.140625 -2.609375 C 0.953125 -2.429688 0.84375 -2.1875 0.8125 -1.875 Z M 2.890625 -1.875 "/></g></g></g><g fill="#ffffff" fill-opacity="1"><g transform="translate(30.523091, 6.757165)"><g><path d="M 0.25 -1.65625 C 0.25 -1.988281 0.316406 -2.28125 0.453125 -2.53125 C 0.597656 -2.789062 0.785156 -2.988281 1.015625 -3.125 C 1.253906 -3.257812 1.519531 -3.328125 1.8125 -3.328125 C 2.101562 -3.328125 2.351562 -3.265625 2.5625 -3.140625 C 2.769531 -3.023438 2.925781 -2.875 3.03125 -2.6875 L 3.03125 -3.28125 L 3.578125 -3.28125 L 3.578125 0 L 3.03125 0 L 3.03125 -0.609375 C 2.925781 -0.421875 2.765625 -0.265625 2.546875 -0.140625 C 2.335938 -0.015625 2.09375 0.046875 1.8125 0.046875 C 1.519531 0.046875 1.253906 -0.0195312 1.015625 -0.15625 C 0.785156 -0.300781 0.597656 -0.503906 0.453125 -0.765625 C 0.316406 -1.023438 0.25 -1.320312 0.25 -1.65625 Z M 3.03125 -1.640625 C 3.03125 -1.890625 2.976562 -2.101562 2.875 -2.28125 C 2.78125 -2.46875 2.644531 -2.609375 2.46875 -2.703125 C 2.300781 -2.804688 2.117188 -2.859375 1.921875 -2.859375 C 1.710938 -2.859375 1.523438 -2.8125 1.359375 -2.71875 C 1.191406 -2.625 1.054688 -2.484375 0.953125 -2.296875 C 0.859375 -2.109375 0.8125 -1.894531 0.8125 -1.65625 C 0.8125 -1.40625 0.859375 -1.1875 0.953125 -1 C 1.054688 -0.8125 1.191406 -0.664062 1.359375 -0.5625 C 1.523438 -0.46875 1.710938 -0.421875 1.921875 -0.421875 C 2.117188 -0.421875 2.300781 -0.46875 2.46875 -0.5625 C 2.644531 -0.664062 2.78125 -0.8125 2.875 -1 C 2.976562 -1.1875 3.03125 -1.398438 3.03125 -1.640625 Z M 3.03125 -1.640625 "/></g></g></g><g fill="#ffffff" fill-opacity="1"><g transform="translate(34.572401, 6.757165)"><g><path d="M 2.0625 -3.34375 C 2.457031 -3.34375 2.78125 -3.21875 3.03125 -2.96875 C 3.28125 -2.726562 3.40625 -2.382812 3.40625 -1.9375 L 3.40625 0 L 2.859375 0 L 2.859375 -1.859375 C 2.859375 -2.179688 2.773438 -2.425781 2.609375 -2.59375 C 2.453125 -2.769531 2.226562 -2.859375 1.9375 -2.859375 C 1.65625 -2.859375 1.425781 -2.769531 1.25 -2.59375 C 1.082031 -2.414062 1 -2.15625 1 -1.8125 L 1 0 L 0.453125 0 L 0.453125 -3.28125 L 1 -3.28125 L 1 -2.8125 C 1.113281 -2.976562 1.257812 -3.109375 1.4375 -3.203125 C 1.625 -3.296875 1.832031 -3.34375 2.0625 -3.34375 Z M 2.0625 -3.34375 "/></g></g></g><g fill="#ffffff" fill-opacity="1"><g transform="translate(38.406069, 6.757165)"><g><path d="M 0.734375 -3.8125 C 0.640625 -3.8125 0.554688 -3.847656 0.484375 -3.921875 C 0.410156 -3.992188 0.375 -4.082031 0.375 -4.1875 C 0.375 -4.289062 0.410156 -4.375 0.484375 -4.4375 C 0.554688 -4.507812 0.640625 -4.546875 0.734375 -4.546875 C 0.835938 -4.546875 0.921875 -4.507812 0.984375 -4.4375 C 1.054688 -4.375 1.09375 -4.289062 1.09375 -4.1875 C 1.09375 -4.082031 1.054688 -3.992188 0.984375 -3.921875 C 0.921875 -3.847656 0.835938 -3.8125 0.734375 -3.8125 Z M 1 -3.28125 L 1 0 L 0.453125 0 L 0.453125 -3.28125 Z M 1 -3.28125 "/></g></g></g><g fill="#ffffff" fill-opacity="1"><g transform="translate(39.879635, 6.757165)"><g><path d="M 2.0625 -3.34375 C 2.457031 -3.34375 2.78125 -3.21875 3.03125 -2.96875 C 3.28125 -2.726562 3.40625 -2.382812 3.40625 -1.9375 L 3.40625 0 L 2.859375 0 L 2.859375 -1.859375 C 2.859375 -2.179688 2.773438 -2.425781 2.609375 -2.59375 C 2.453125 -2.769531 2.226562 -2.859375 1.9375 -2.859375 C 1.65625 -2.859375 1.425781 -2.769531 1.25 -2.59375 C 1.082031 -2.414062 1 -2.15625 1 -1.8125 L 1 0 L 0.453125 0 L 0.453125 -3.28125 L 1 -3.28125 L 1 -2.8125 C 1.113281 -2.976562 1.257812 -3.109375 1.4375 -3.203125 C 1.625 -3.296875 1.832031 -3.34375 2.0625 -3.34375 Z M 2.0625 -3.34375 "/></g></g></g><g clip-path="url(#3b3cac3cce)"><g fill="#ffffff" fill-opacity="1"><g transform="translate(43.713303, 6.757165)"><g><path d="M 1.8125 -3.328125 C 2.09375 -3.328125 2.335938 -3.265625 2.546875 -3.140625 C 2.765625 -3.023438 2.925781 -2.875 3.03125 -2.6875 L 3.03125 -3.28125 L 3.578125 -3.28125 L 3.578125 0.078125 C 3.578125 0.367188 3.515625 0.628906 3.390625 0.859375 C 3.265625 1.097656 3.082031 1.28125 2.84375 1.40625 C 2.601562 1.539062 2.328125 1.609375 2.015625 1.609375 C 1.585938 1.609375 1.226562 1.503906 0.9375 1.296875 C 0.65625 1.097656 0.488281 0.828125 0.4375 0.484375 L 0.96875 0.484375 C 1.03125 0.679688 1.15625 0.835938 1.34375 0.953125 C 1.53125 1.078125 1.753906 1.140625 2.015625 1.140625 C 2.316406 1.140625 2.5625 1.046875 2.75 0.859375 C 2.9375 0.671875 3.03125 0.410156 3.03125 0.078125 L 3.03125 -0.609375 C 2.925781 -0.421875 2.765625 -0.265625 2.546875 -0.140625 C 2.335938 -0.015625 2.09375 0.046875 1.8125 0.046875 C 1.519531 0.046875 1.253906 -0.0195312 1.015625 -0.15625 C 0.785156 -0.300781 0.597656 -0.503906 0.453125 -0.765625 C 0.316406 -1.023438 0.25 -1.320312 0.25 -1.65625 C 0.25 -1.988281 0.316406 -2.28125 0.453125 -2.53125 C 0.597656 -2.789062 0.785156 -2.988281 1.015625 -3.125 C 1.253906 -3.257812 1.519531 -3.328125 1.8125 -3.328125 Z M 3.03125 -1.640625 C 3.03125 -1.890625 2.976562 -2.101562 2.875 -2.28125 C 2.78125 -2.46875 2.644531 -2.609375 2.46875 -2.703125 C 2.300781 -2.804688 2.117188 -2.859375 1.921875 -2.859375 C 1.710938 -2.859375 1.523438 -2.8125 1.359375 -2.71875 C 1.191406 -2.625 1.054688 -2.484375 0.953125 -2.296875 C 0.859375 -2.109375 0.8125 -1.894531 0.8125 -1.65625 C 0.8125 -1.40625 0.859375 -1.1875 0.953125 -1 C 1.054688 -0.8125 1.191406 -0.664062 1.359375 -0.5625 C 1.523438 -0.46875 1.710938 -0.421875 1.921875 -0.421875 C 2.117188 -0.421875 2.300781 -0.46875 2.46875 -0.5625 C 2.644531 -0.664062 2.78125 -0.8125 2.875 -1 C 2.976562 -1.1875 3.03125 -1.398438 3.03125 -1.640625 Z M 3.03125 -1.640625 "/></g></g></g></g></g></g><g transform="matrix(1, 0, 0, 1, 80, 18)"><g clip-path="url(#7736f6a49f)"><g fill="#ffffff" fill-opacity="1"><g transform="translate(1.037292, 8.410307)"><g><path d="M 2.484375 -6.140625 L 4.734375 -6.140625 C 5.203125 -5.265625 5.671875 -4.398438 6.140625 -3.546875 C 6.609375 -2.691406 7.070312 -1.828125 7.53125 -0.953125 C 7.59375 -0.835938 7.664062 -0.738281 7.75 -0.65625 C 7.84375 -0.582031 8.003906 -0.546875 8.234375 -0.546875 L 8.90625 -0.546875 L 8.90625 0 L 5.328125 0 L 5.328125 -0.546875 L 6.1875 -0.546875 C 6.238281 -0.546875 6.289062 -0.550781 6.34375 -0.5625 C 6.394531 -0.570312 6.429688 -0.59375 6.453125 -0.625 C 6.484375 -0.65625 6.5 -0.691406 6.5 -0.734375 C 6.507812 -0.785156 6.5 -0.84375 6.46875 -0.90625 L 6.046875 -1.765625 L 2.609375 -1.765625 L 2.1875 -0.953125 C 2.125 -0.828125 2.117188 -0.726562 2.171875 -0.65625 C 2.234375 -0.582031 2.34375 -0.546875 2.5 -0.546875 L 3.3125 -0.546875 L 3.3125 0 L 0.03125 0 L 0.03125 -0.546875 L 0.765625 -0.546875 C 0.929688 -0.546875 1.054688 -0.578125 1.140625 -0.640625 C 1.222656 -0.710938 1.300781 -0.816406 1.375 -0.953125 C 1.757812 -1.671875 2.140625 -2.378906 2.515625 -3.078125 C 2.890625 -3.785156 3.269531 -4.492188 3.65625 -5.203125 C 3.707031 -5.304688 3.71875 -5.394531 3.6875 -5.46875 C 3.65625 -5.539062 3.582031 -5.578125 3.46875 -5.578125 L 2.484375 -5.578125 Z M 5.703125 -2.390625 C 5.460938 -2.828125 5.222656 -3.257812 4.984375 -3.6875 C 4.753906 -4.125 4.519531 -4.5625 4.28125 -5 L 2.921875 -2.390625 Z M 5.703125 -2.390625 "/></g></g></g><g clip-path="url(#53d7c2d3e4)"><g fill="#ffffff" fill-opacity="1"><g transform="translate(9.983459, 8.410307)"><g><path d="M 9.328125 -1.03125 C 9.222656 -0.832031 9.09375 -0.664062 8.9375 -0.53125 C 8.789062 -0.394531 8.625 -0.28125 8.4375 -0.1875 C 8.257812 -0.101562 8.066406 -0.0390625 7.859375 0 C 7.660156 0.03125 7.457031 0.046875 7.25 0.046875 C 7.03125 0.046875 6.828125 0.03125 6.640625 0 C 6.453125 -0.03125 6.285156 -0.0664062 6.140625 -0.109375 C 5.992188 -0.160156 5.863281 -0.21875 5.75 -0.28125 C 5.632812 -0.34375 5.539062 -0.394531 5.46875 -0.4375 C 5.132812 -0.25 4.757812 -0.109375 4.34375 -0.015625 C 3.925781 0.078125 3.519531 0.125 3.125 0.125 C 2.75 0.125 2.390625 0.0859375 2.046875 0.015625 C 1.710938 -0.046875 1.414062 -0.15625 1.15625 -0.3125 C 0.90625 -0.46875 0.703125 -0.660156 0.546875 -0.890625 C 0.398438 -1.128906 0.328125 -1.414062 0.328125 -1.75 C 0.328125 -2.125 0.410156 -2.429688 0.578125 -2.671875 C 0.753906 -2.921875 0.96875 -3.117188 1.21875 -3.265625 C 1.476562 -3.421875 1.753906 -3.535156 2.046875 -3.609375 C 2.335938 -3.679688 2.609375 -3.726562 2.859375 -3.75 C 2.796875 -4.019531 2.769531 -4.300781 2.78125 -4.59375 C 2.800781 -4.894531 2.863281 -5.164062 2.96875 -5.40625 C 3.082031 -5.65625 3.25 -5.859375 3.46875 -6.015625 C 3.695312 -6.179688 3.984375 -6.265625 4.328125 -6.265625 C 4.535156 -6.265625 4.722656 -6.226562 4.890625 -6.15625 C 5.054688 -6.09375 5.195312 -6.003906 5.3125 -5.890625 C 5.425781 -5.773438 5.515625 -5.632812 5.578125 -5.46875 C 5.640625 -5.3125 5.671875 -5.140625 5.671875 -4.953125 C 5.671875 -4.710938 5.617188 -4.503906 5.515625 -4.328125 C 5.421875 -4.148438 5.296875 -4 5.140625 -3.875 C 4.984375 -3.75 4.800781 -3.644531 4.59375 -3.5625 C 4.394531 -3.476562 4.203125 -3.421875 4.015625 -3.390625 C 4.078125 -3.210938 4.171875 -3.019531 4.296875 -2.8125 C 4.421875 -2.601562 4.554688 -2.398438 4.703125 -2.203125 C 4.859375 -2.015625 5.015625 -1.84375 5.171875 -1.6875 C 5.335938 -1.53125 5.476562 -1.414062 5.59375 -1.34375 C 5.757812 -1.445312 5.910156 -1.570312 6.046875 -1.71875 C 6.191406 -1.875 6.320312 -2.023438 6.4375 -2.171875 C 6.5625 -2.328125 6.660156 -2.472656 6.734375 -2.609375 C 6.816406 -2.753906 6.875 -2.859375 6.90625 -2.921875 C 6.9375 -3.023438 6.9375 -3.117188 6.90625 -3.203125 C 6.882812 -3.296875 6.800781 -3.34375 6.65625 -3.34375 L 5.890625 -3.34375 L 5.890625 -3.890625 L 9.015625 -3.890625 L 9.015625 -3.34375 L 8.375 -3.34375 C 8.257812 -3.34375 8.132812 -3.3125 8 -3.25 C 7.863281 -3.1875 7.738281 -3.046875 7.625 -2.828125 C 7.46875 -2.535156 7.273438 -2.222656 7.046875 -1.890625 C 6.816406 -1.554688 6.539062 -1.253906 6.21875 -0.984375 C 6.394531 -0.878906 6.570312 -0.789062 6.75 -0.71875 C 6.9375 -0.65625 7.175781 -0.625 7.46875 -0.625 C 7.78125 -0.625 8.066406 -0.691406 8.328125 -0.828125 C 8.585938 -0.972656 8.785156 -1.148438 8.921875 -1.359375 Z M 3.109375 -3.171875 C 2.835938 -3.148438 2.59375 -3.101562 2.375 -3.03125 C 2.15625 -2.96875 1.96875 -2.878906 1.8125 -2.765625 C 1.65625 -2.648438 1.53125 -2.507812 1.4375 -2.34375 C 1.351562 -2.1875 1.3125 -2.007812 1.3125 -1.8125 C 1.3125 -1.613281 1.359375 -1.429688 1.453125 -1.265625 C 1.546875 -1.109375 1.675781 -0.972656 1.84375 -0.859375 C 2.019531 -0.753906 2.226562 -0.671875 2.46875 -0.609375 C 2.707031 -0.546875 2.96875 -0.515625 3.25 -0.515625 C 3.332031 -0.515625 3.429688 -0.519531 3.546875 -0.53125 C 3.671875 -0.539062 3.800781 -0.5625 3.9375 -0.59375 C 4.070312 -0.625 4.210938 -0.660156 4.359375 -0.703125 C 4.503906 -0.753906 4.644531 -0.816406 4.78125 -0.890625 C 4.425781 -1.191406 4.101562 -1.519531 3.8125 -1.875 C 3.53125 -2.238281 3.296875 -2.671875 3.109375 -3.171875 Z M 3.78125 -3.9375 C 3.90625 -3.957031 4.039062 -3.988281 4.1875 -4.03125 C 4.332031 -4.070312 4.460938 -4.128906 4.578125 -4.203125 C 4.703125 -4.285156 4.800781 -4.390625 4.875 -4.515625 C 4.957031 -4.640625 5 -4.789062 5 -4.96875 C 5 -5.15625 4.941406 -5.304688 4.828125 -5.421875 C 4.710938 -5.535156 4.5625 -5.59375 4.375 -5.59375 C 4.25 -5.59375 4.140625 -5.5625 4.046875 -5.5 C 3.960938 -5.445312 3.890625 -5.378906 3.828125 -5.296875 C 3.773438 -5.210938 3.734375 -5.125 3.703125 -5.03125 C 3.671875 -4.945312 3.65625 -4.875 3.65625 -4.8125 C 3.65625 -4.707031 3.660156 -4.578125 3.671875 -4.421875 C 3.679688 -4.265625 3.71875 -4.101562 3.78125 -3.9375 Z M 3.78125 -3.9375 "/></g></g></g></g></g></g><g transform="matrix(1, 0, 0, 1, 92, 16)"><g clip-path="url(#3c28419873)"><g clip-path="url(#01e34e4019)"><g fill="#ffffff" fill-opacity="1"><g transform="translate(0.221094, 17.811305)"><g><path d="M 12.625 -5.015625 C 12.625 -4.296875 12.488281 -3.613281 12.21875 -2.96875 C 11.945312 -2.320312 11.554688 -1.753906 11.046875 -1.265625 C 10.535156 -0.785156 9.898438 -0.40625 9.140625 -0.125 C 8.378906 0.15625 7.515625 0.296875 6.546875 0.296875 C 5.554688 0.296875 4.6875 0.171875 3.9375 -0.078125 C 3.195312 -0.328125 2.566406 -0.664062 2.046875 -1.09375 C 1.535156 -1.519531 1.132812 -2.023438 0.84375 -2.609375 C 0.5625 -3.203125 0.378906 -3.832031 0.296875 -4.5 L 1.65625 -4.71875 C 1.832031 -3.664062 2.3125 -2.820312 3.09375 -2.1875 C 3.875 -1.5625 4.90625 -1.25 6.1875 -1.25 C 6.925781 -1.25 7.566406 -1.351562 8.109375 -1.5625 C 8.660156 -1.78125 9.113281 -2.066406 9.46875 -2.421875 C 9.832031 -2.785156 10.101562 -3.191406 10.28125 -3.640625 C 10.46875 -4.085938 10.5625 -4.539062 10.5625 -5 L 10.5625 -11.1875 C 10.5625 -11.75 10.445312 -12.125 10.21875 -12.3125 C 9.988281 -12.5 9.609375 -12.59375 9.078125 -12.59375 L 5.296875 -12.59375 L 5.296875 -13.828125 L 15.453125 -13.828125 L 15.453125 -12.59375 L 13.65625 -12.59375 C 13.507812 -12.59375 13.375 -12.582031 13.25 -12.5625 C 13.125 -12.550781 13.015625 -12.507812 12.921875 -12.4375 C 12.828125 -12.363281 12.753906 -12.25 12.703125 -12.09375 C 12.648438 -11.945312 12.625 -11.738281 12.625 -11.46875 Z M 12.625 -5.015625 "/></g></g></g></g></g></g></svg>